<svg xmlns="http://www.w3.org/2000/svg" width="2000" height="2000" text-anchor="middle">
  <circle cx="1000" cy="1000" r="1000" fill="#1c2128" />
  <rect fill="rgba(69, 212, 219)" width="275" height="275" rx="22" ry="22" x="417.42857142857144" y="417.42857142857144" />
  <rect fill="rgba(128, 226, 230)" width="275" height="275" rx="22" ry="22" x="417.42857142857144" y="714.4285714285714" />
  <rect fill="rgba(43, 206, 214)" width="275" height="275" rx="22" ry="22" x="417.42857142857144" y="1011.4285714285714" />
  <rect fill="rgba(69, 212, 219)" width="275" height="275" rx="22" ry="22" x="417.42857142857144" y="1308.4285714285716" />
  <rect fill="#1c2128" width="275" height="275" rx="22" ry="22" x="714.4285714285714" y="417.42857142857144" />
  <rect fill="rgba(0, 196, 205)" width="275" height="275" rx="22" ry="22" x="714.4285714285714" y="714.4285714285714" />
  <rect fill="#1c2128" width="275" height="275" rx="22" ry="22" x="714.4285714285714" y="1011.4285714285714" />
  <rect fill="#1c2128" width="275" height="275" rx="22" ry="22" x="714.4285714285714" y="1308.4285714285716" />
  <rect fill="#1c2128" width="275" height="275" rx="22" ry="22" x="1011.4285714285714" y="417.42857142857144" />
  <rect fill="#1c2128" width="275" height="275" rx="22" ry="22" x="1011.4285714285714" y="714.4285714285714" />
  <rect fill="rgba(97, 218, 224)" width="275" height="275" rx="22" ry="22" x="1011.4285714285714" y="1011.4285714285714" />
  <rect fill="#1c2128" width="275" height="275" rx="22" ry="22" x="1011.4285714285714" y="1308.4285714285716" />
  <rect fill="rgba(87, 216, 222)" width="275" height="275" rx="22" ry="22" x="1308.4285714285716" y="417.42857142857144" />
  <rect fill="rgba(43, 206, 214)" width="275" height="275" rx="22" ry="22" x="1308.4285714285716" y="714.4285714285714" />
  <rect fill="rgba(128, 226, 230)" width="275" height="275" rx="22" ry="22" x="1308.4285714285716" y="1011.4285714285714" />
  <rect fill="rgba(87, 216, 222)" width="275" height="275" rx="22" ry="22" x="1308.4285714285716" y="1308.4285714285716" />
</svg>
