<svg xmlns="http://www.w3.org/2000/svg" width="2000" height="2000" text-anchor="middle">
  <circle cx="1000" cy="1000" r="1000" fill="white" />
  <rect fill="rgba(0, 196, 205, 0.57)" width="275" height="275" rx="22" ry="22" x="417.42857142857144" y="417.42857142857144" />
  <rect fill="rgba(0, 196, 205, 0.63)" width="275" height="275" rx="22" ry="22" x="417.42857142857144" y="714.4285714285714" />
  <rect fill="rgba(0, 196, 205, 0.88)" width="275" height="275" rx="22" ry="22" x="417.42857142857144" y="1011.4285714285714" />
  <rect fill="rgba(0, 196, 205, 0.57)" width="275" height="275" rx="22" ry="22" x="417.42857142857144" y="1308.4285714285716" />
  <rect fill="white" width="275" height="275" rx="22" ry="22" x="714.4285714285714" y="417.42857142857144" />
  <rect fill="rgba(0, 196, 205, 1)" width="275" height="275" rx="22" ry="22" x="714.4285714285714" y="714.4285714285714" />
  <rect fill="white" width="275" height="275" rx="22" ry="22" x="714.4285714285714" y="1011.4285714285714" />
  <rect fill="white" width="275" height="275" rx="22" ry="22" x="714.4285714285714" y="1308.4285714285716" />
  <rect fill="white" width="275" height="275" rx="22" ry="22" x="1011.4285714285714" y="417.42857142857144" />
  <rect fill="white" width="275" height="275" rx="22" ry="22" x="1011.4285714285714" y="714.4285714285714" />
  <rect fill="rgba(0, 196, 205, 0.79)" width="275" height="275" rx="22" ry="22" x="1011.4285714285714" y="1011.4285714285714" />
  <rect fill="white" width="275" height="275" rx="22" ry="22" x="1011.4285714285714" y="1308.4285714285716" />
  <rect fill="rgba(0, 196, 205, 0.49)" width="275" height="275" rx="22" ry="22" x="1308.4285714285716" y="417.42857142857144" />
  <rect fill="rgba(0, 196, 205, 0.83)" width="275" height="275" rx="22" ry="22" x="1308.4285714285716" y="714.4285714285714" />
  <rect fill="rgba(0, 196, 205, 0.68)" width="275" height="275" rx="22" ry="22" x="1308.4285714285716" y="1011.4285714285714" />
  <rect fill="rgba(0, 196, 205, 0.48)" width="275" height="275" rx="22" ry="22" x="1308.4285714285716" y="1308.4285714285716" />
</svg>
